<svg xmlns="http://www.w3.org/2000/svg" width="1024" height="1024" viewBox="0 0 1024 1024">
<g>
<path d="M 497.24 748.58 C492.54,746.87 486.46,740.50 483.92,734.61 C478.62,722.35 480.81,696.45 489.68,666.50 C499.47,633.44 518.47,590.17 538.43,555.50 C545.61,543.04 564.61,514.34 573.28,502.87 L 579.81 494.25 L 571.39 487.56 C563.33,481.15 550.99,468.24 537.21,451.79 L 530.74 444.07 L 526.12 449.29 C504.81,473.34 464.08,514.20 443.50,532.16 C382.71,585.23 322.94,609.95 272.43,602.93 C255.96,600.64 237.99,593.82 224.80,584.86 C215.92,578.83 201.70,564.82 196.46,556.94 C182.80,536.39 177.65,519.21 177.61,494.00 C177.57,476.64 179.53,464.49 185.02,448.00 C204.59,389.23 251.84,334.46 305.33,308.53 C331.45,295.87 353.42,291.87 371.77,296.42 C380.10,298.49 384.48,301.10 387.75,305.95 C391.12,310.95 389.28,311.77 382.33,308.37 C377.07,305.78 375.57,305.51 367.00,305.63 C354.67,305.79 344.62,308.48 330.29,315.44 C285.84,337.03 243.78,383.12 222.55,433.50 C206.03,472.70 206.19,510.19 222.98,535.00 C238.01,557.19 262.88,570.00 290.95,570.00 C311.51,570.00 337.77,562.40 363.00,549.14 C394.32,532.69 427.47,508.54 457.92,480.00 C474.15,464.78 513.21,424.08 512.76,422.85 C512.18,421.27 492.91,399.98 483.88,390.95 C452.97,360.03 422.75,348.74 388.00,355.12 C357.95,360.64 324.84,386.01 310.52,414.50 C302.81,429.84 301.28,440.50 304.97,453.38 C307.75,463.10 305.37,466.69 298.35,463.36 C291.37,460.05 285.00,441.96 285.00,425.45 C285.00,375.38 337.25,327.12 394.50,324.32 C427.56,322.71 455.62,333.39 484.39,358.54 C492.59,365.71 509.49,384.04 521.87,399.17 L 528.14 406.84 L 539.32 395.19 C583.66,348.99 616.07,322.15 652.44,301.51 C674.30,289.10 694.52,280.65 713.06,276.15 C732.63,271.41 738.98,270.72 758.12,271.25 C772.60,271.65 777.13,272.16 785.28,274.31 C796.14,277.18 810.91,283.87 818.39,289.30 C840.98,305.69 855.08,330.65 857.47,358.50 C858.81,374.20 853.97,396.10 845.34,413.34 C809.80,484.37 719.71,538.40 653.18,528.58 C646.95,527.66 637.38,525.45 631.90,523.66 L 621.94 520.40 L 620.40 525.95 C619.56,529.00 618.47,532.62 617.98,534.00 C617.49,535.38 615.68,541.45 613.96,547.50 C603.87,582.92 584.20,642.56 576.47,661.16 C556.75,708.58 536.28,738.98 518.31,747.53 C512.54,750.28 503.19,750.74 497.24,748.58 ZM 509.18 717.75 C526.26,696.55 548.76,644.23 567.99,581.00 C570.25,573.58 572.73,565.70 573.49,563.50 C574.26,561.30 576.91,552.53 579.38,544.00 C581.85,535.47 585.38,523.91 587.21,518.30 L 590.55 508.09 L 587.52 511.76 C580.83,519.86 566.06,541.71 554.24,561.00 C547.03,572.76 530.02,606.75 524.47,620.50 C508.66,659.65 500.07,692.68 501.34,709.43 C502.42,723.54 503.55,724.74 509.18,717.75 ZM 696.00 497.24 C727.82,488.26 757.20,470.16 783.12,443.56 C797.76,428.53 806.83,416.24 814.46,401.08 C822.63,384.86 825.95,363.85 822.59,349.60 C818.34,331.59 804.17,315.33 787.18,308.96 C774.19,304.10 770.28,303.50 752.00,303.56 C736.79,303.61 733.00,303.97 723.00,306.27 C707.95,309.73 698.16,312.98 685.69,318.67 C644.79,337.33 606.80,365.95 560.63,412.89 C547.29,426.46 545.90,428.19 547.12,429.76 C558.73,444.71 592.96,478.90 594.31,476.89 C594.46,476.68 597.74,472.67 601.60,468.00 C606.16,462.47 609.95,456.53 612.44,451.00 C621.45,430.95 637.75,403.29 647.19,392.04 C659.01,377.94 671.67,371.80 678.24,376.98 C682.80,380.56 682.37,383.33 676.20,390.24 C670.95,396.13 662.00,408.97 662.00,410.62 C662.00,411.05 663.46,410.03 665.25,408.37 C669.12,404.78 680.00,396.84 688.91,391.12 C695.92,386.61 699.77,385.98 702.41,388.90 C704.81,391.55 704.13,392.39 688.18,406.50 C680.73,413.10 668.69,424.25 661.44,431.27 L 648.26 444.04 L 644.21 454.27 C640.72,463.11 631.02,491.78 630.63,494.41 C630.48,495.46 640.13,498.65 647.50,499.98 C650.25,500.48 659.92,500.73 669.00,500.54 C683.63,500.24 686.69,499.86 696.00,497.24 Z" fill="rgba(0,0,0,1)"/>
</g>
</svg>